# xmcd
#
# Track frame offsets: 
#        150
#        519
#        17094
#        34528
#        50155
#        71335
#        88470
#        90042
#        98855
#        116949
#        135332
#        152464
#        171321
#        187830
#        204649
#        222615
#        240471
#        261749
#
# Disc length: 3707 seconds
#
# Revision: 1
# Processed by: cddbd v1.5.1PL2 Copyright (c) Steve Scherf et al.
# Submitted via: ExactAudioCopy v0.95b3
#
DISCID=f40e7912
DTITLE=Warren G - In The Mid-Nite Hour
DYEAR=2005
DGENRE=Hip-Hop
TTITLE0=Intro ... Shhhhh
TTITLE1=On My Mind ... 11.59 PM (Feat. Chevy and Bishop Lamont)
TTITLE2=Make It Do What It Do (Feat. Bishop Lamont)
TTITLE3=In Case Some Shit Go Down (Feat. Mike Jones)
TTITLE4=I Need A Light (Feat. Nate Dogg)
TTITLE5=Get U Down (Feat. B-Real and Side Effect)
TTITLE6=A Chronic Break
TTITLE7=Weed Song (Feat. Frank Lee White)
TTITLE8=Wheels Keep Spinning
TTITLE9=PYT (Feat. Big Snoop Dogg and Nate Dogg)
TTITLE10=Walk These Streets (Feat. Raphael Saadiq)
TTITLE11=Garilla Pimpin' (Feat. Bishop Lamont)
TTITLE12=Turn It Up Loud (Feat. Chuck Taylor)
TTITLE13=Mid-Night Hour (Feat. Nate Dogg)
TTITLE14=I Like That There (Feat. Bishop Lamont)
TTITLE15=Yes Sir (Feat. Snoop Dogg and Bishop Lamont)
TTITLE16=Ahh (Feat. Bishop Lamont, Frank Lee White and Chuck Taylor)
TTITLE17=All I Ask Of You (Feat. Frank Lee White, Chevy Jones and Bishop
TTITLE17=Lamont)
EXTD=
EXTT0=
EXTT1=
EXTT2=
EXTT3=
EXTT4=
EXTT5=
EXTT6=
EXTT7=
EXTT8=
EXTT9=
EXTT10=
EXTT11=
EXTT12=
EXTT13=
EXTT14=
EXTT15=
EXTT16=
EXTT17=
PLAYORDER=
